<?xml version="1.0"?><!DOCTYPE svg  PUBLIC '-//W3C//DTD SVG 1.1//EN'  'http://www.w3.org/Graphics/SVG/1.1/DTD/svg11.dtd'><svg enable-background="new 0 0 512 512" height="512px" id="Collaboration" version="1.1" viewBox="0 0 512 512" width="512px" xml:space="preserve" xmlns="http://www.w3.org/2000/svg" xmlns:xlink="http://www.w3.org/1999/xlink"><path d="M457.321,346.608l-28.102-31.827l-7.224,6.378l-23.224-25.661l-0.006-0.007l0,0l-28.684-31.694l5.668-15.848  l-9.46-95.672c8.522-1.961,14.136-10.105,12.937-18.767l-1.277-9.224c-1.359-9.823-10.854-16.364-20.518-14.135l-49.92,11.517  l-32.708-35.512c-9.705-10.537-25.98-11.577-36.948-2.362l-47.243,39.696c0,0-22.707-7.642-35.365,11.657  c0,0-6.685,10.885,2.346,20.537c0,0-11.557,0.423-19.101,15.177c0,0-5.598,12.256,3.381,21.767c0,0-15.078,2.986-20.136,13.946  c0,0-5.542,10.258,2.961,21.312c0,0-17.644,5.991-18.683,18.565c0,0-3.884,19.787,17.314,29.174l-10.642,12.216L81.066,319.64  l-5.503-4.858l-28.102,31.827l102.354,90.372l18.139-20.543l77.157-82.864l25.775,10.378l84.082,93.029l96.663-83.076l-1.143-1.263  L457.321,346.608z" fill="#FFFFFF"/><rect fill="#8DDCFF" height="42.458" transform="matrix(0.7496 0.6619 -0.6619 0.7496 281.3581 8.0053)" width="136.541" x="61.828" y="354.652"/><rect fill="#8DDCFF" height="42.458" transform="matrix(-0.7496 0.6619 -0.6619 -0.7496 965.2587 386.6108)" width="136.541" x="341.233" y="354.652"/><path d="M114.157,333.474c4.375,0,7.934-3.56,7.934-7.935s-3.559-7.934-7.934-7.934s-7.934,3.559-7.934,7.934  S109.782,333.474,114.157,333.474z" fill="#4A4A4A"/><path d="M289.906,318.949l71.05-39.116c14.192-7.817,22.257-23.275,20.542-39.387l-8.965-84.329  c9.121-4.52,14.846-14.429,13.777-24.857l-0.545-5.307c-0.732-7.135-4.506-13.607-10.356-17.755  c-5.849-4.146-13.2-5.563-20.175-3.902l-115.521,27.611l-5.747,7.039c-5.453,6.682-13.529,10.555-22.443,10.638  c-0.801,0.059-19.392,0.969-21.258-12.737c0.089-3.449,1.608-6.716,4.197-9.014l44.895-39.801  c9.112-8.082,23.229-7.356,31.468,1.615l18.607,20.266l8.549-7.849l-18.607-20.267c-12.489-13.601-33.895-14.709-47.715-2.451  l-44.896,39.804c-5.152,4.568-8.107,11.136-8.107,18.022l0.039,0.66c2.27,19.873,22.91,23.97,33.217,23.35  c12.089-0.102,23.406-5.532,31.048-14.896l3.267-4.001l111.708-26.698c3.719-0.893,7.641-0.133,10.762,2.08  c3.119,2.213,5.135,5.667,5.523,9.473l0.545,5.307c0.666,6.486-3.597,12.596-9.912,14.211l-4.864,1.244l9.97,93.776  c1.219,11.448-4.512,22.437-14.599,27.991l-71.05,39.115c-4.536,2.5-9.449,4.063-14.605,4.653  c-12.383,1.417-23.805,7.288-32.163,16.528l-37.169,41.096l-86.19-76.1l5.337-6.121l-8.748-7.628l-9.119,10.457l-19.054,21.581  l-7.543-6.66L39.27,347.117l111.053,98.056l27.917-31.618h0l26.893-30.455l0,0l41.017-45.35  c6.463-7.149,15.297-11.689,24.874-12.783C277.688,324.205,284.041,322.179,289.906,318.949z M149.305,428.789l-93.654-82.691  l20.234-22.914l93.655,82.69L149.305,428.789z M177.407,396.961l-86.11-76.031l15.228-17.246l86.111,76.032L177.407,396.961z" fill="#4A4A4A"/><path d="M111.995,273.777l50.248,23.573c3.495,1.641,7.176,2.417,10.803,2.417c9.597,0,18.811-5.438,23.151-14.684  c3.37-7.186,3.088-15.16-0.08-21.822c0.805-0.206,1.606-0.441,2.399-0.729c6.412-2.314,11.54-6.99,14.436-13.165  c2.896-6.172,3.216-13.103,0.898-19.518c-0.291-0.803-0.618-1.585-0.98-2.346c7.146-1.824,13.467-6.667,16.837-13.848  c3.371-7.186,3.089-15.16-0.079-21.822c0.805-0.206,1.606-0.441,2.398-0.728c6.413-2.315,11.54-6.991,14.436-13.165  c2.972-6.331,3.233-13.417,0.735-19.952l-10.842,4.143c1.362,3.562,1.22,7.427-0.401,10.878c-1.58,3.366-4.375,5.917-7.873,7.181  c-3.49,1.267-7.272,1.088-10.643-0.49l-50.246-23.573c-3.368-1.581-5.917-4.375-7.18-7.872c-1.264-3.497-1.091-7.277,0.489-10.644  c1.717-3.661,4.935-6.39,8.827-7.486l-3.151-11.17c-7.135,2.012-13.033,7.016-16.183,13.726c-2.896,6.172-3.216,13.103-0.898,19.518  c0.286,0.79,0.609,1.56,0.965,2.31c-7.145,1.825-13.453,6.706-16.822,13.885c-3.369,7.183-3.09,15.154,0.075,21.815  c-0.804,0.206-1.604,0.45-2.395,0.735c-6.412,2.315-11.54,6.991-14.436,13.165c-3.369,7.181-3.09,15.151,0.074,21.812  c-0.804,0.206-1.603,0.45-2.393,0.736c-6.412,2.318-11.54,6.993-14.436,13.165C93.749,252.565,99.252,267.799,111.995,273.777z   M143.746,173.325c3.261-6.951,11.565-9.946,18.516-6.69l50.246,23.573c6.95,3.262,9.952,11.567,6.692,18.518  c-3.26,6.951-11.568,9.946-18.517,6.69l-50.246-23.573C143.488,188.582,140.486,180.276,143.746,173.325z M126.99,209.041  c1.58-3.366,4.375-5.917,7.873-7.181c1.543-0.558,3.143-0.836,4.738-0.836c2.017,0,4.025,0.445,5.906,1.326l50.246,23.573  c3.367,1.581,5.917,4.375,7.181,7.872c1.264,3.497,1.091,7.277-0.489,10.644c-1.58,3.366-4.375,5.917-7.874,7.18  c-3.492,1.267-7.272,1.088-10.643-0.49l-50.247-23.573c-3.367-1.579-5.917-4.375-7.181-7.872  C125.238,216.187,125.411,212.407,126.99,209.041z M110.235,244.753c1.58-3.367,4.375-5.917,7.874-7.181  c3.495-1.264,7.275-1.088,10.642,0.49l50.247,23.573c6.95,3.261,9.951,11.566,6.692,18.518c-3.26,6.951-11.565,9.946-18.516,6.69  l-50.248-23.573C109.976,260.009,106.975,251.704,110.235,244.753z" fill="#4A4A4A"/><path d="M429.727,306.588l-7.543,6.66l-19.235-21.787l-17.246-19.61l-8.716,7.662l13.596,15.461l-86.122,76.042  l-23.063-26.103c-3.048-3.446-6.946-6.081-11.274-7.62l-10.719-3.816l-3.893,10.932l10.721,3.82  c2.483,0.881,4.721,2.395,6.471,4.372l25.91,29.325l27.928,31.629h0.002l27.916,31.618l111.053-98.056L429.727,306.588z   M312.146,379.716l86.111-76.032l15.228,17.246l-86.11,76.031L312.146,379.716z M335.241,405.874l93.655-82.69l20.234,22.914  l-93.654,82.691L335.241,405.874z" fill="#4A4A4A"/><path d="M390.625,317.605c-4.376,0-7.935,3.559-7.935,7.934s3.559,7.935,7.935,7.935c4.375,0,7.934-3.56,7.934-7.935  S395,317.605,390.625,317.605z" fill="#4A4A4A"/></svg>